ISO-10303-21;
HEADER;
/* Generated by software containing ST-Developer
 * from STEP Tools, Inc. (www.steptools.com) 
 */
/* OPTION: using custom renumber hook */

FILE_DESCRIPTION(
/* description */ ('STEP AP242 Edition 2',
'CAx-IF Rec.Pracs.---Representation and Presentation of Product Manufa
cturing Information (PMI)---4.0---2014-10-13',
'CAx-IF Rec.Pracs.---3D Tessellated Geometry---0.4---2014-09-14','2;1',
'CAx-IF Rec.Pracs.---User Defined Attributes---1.5---2016-08-15'),
/* implementation_level */ '2;1');

FILE_NAME(
/* name */ 'CaseBottom',
/* time_stamp */ '2026-07-25T19:56:46Z',
/* author */ (''),
/* organization */ (''),
/* preprocessor_version */ 'ST-DEVELOPER v20',
/* originating_system */ 'ONSHAPE BY PTC INC, 1.218',
/* authorisation */ '  ');

FILE_SCHEMA (('AP242_MANAGED_MODEL_BASED_3D_ENGINEERING_MIM_LF { 1 0 10303 442 3 1 4 }'));
ENDSEC;

DATA;
#10=SHAPE_REPRESENTATION_RELATIONSHIP('','',#607,#11);
#11=ADVANCED_BREP_SHAPE_REPRESENTATION('',(#605),#981);
#12=CIRCLE('',#614,0.001);
#13=CIRCLE('',#615,0.001);
#14=CIRCLE('',#617,0.001);
#15=CIRCLE('',#618,0.001);
#16=CIRCLE('',#621,0.001);
#17=CIRCLE('',#622,0.001);
#18=CIRCLE('',#624,0.001);
#19=CIRCLE('',#625,0.001);
#20=CIRCLE('',#627,0.005);
#21=CIRCLE('',#628,0.005);
#22=CIRCLE('',#629,0.005);
#23=CIRCLE('',#630,0.005);
#24=CIRCLE('',#636,0.005);
#25=CIRCLE('',#642,0.005);
#26=CIRCLE('',#649,0.005);
#27=CIRCLE('',#650,0.005);
#28=CYLINDRICAL_SURFACE('',#613,0.001);
#29=CYLINDRICAL_SURFACE('',#616,0.001);
#30=CYLINDRICAL_SURFACE('',#620,0.001);
#31=CYLINDRICAL_SURFACE('',#623,0.001);
#32=CYLINDRICAL_SURFACE('',#651,0.005);
#33=CYLINDRICAL_SURFACE('',#652,0.005);
#34=CYLINDRICAL_SURFACE('',#653,0.005);
#35=CYLINDRICAL_SURFACE('',#654,0.005);
#36=ORIENTED_EDGE('',*,*,#196,.F.);
#37=ORIENTED_EDGE('',*,*,#197,.F.);
#38=ORIENTED_EDGE('',*,*,#198,.T.);
#39=ORIENTED_EDGE('',*,*,#199,.T.);
#40=ORIENTED_EDGE('',*,*,#200,.T.);
#41=ORIENTED_EDGE('',*,*,#201,.F.);
#42=ORIENTED_EDGE('',*,*,#202,.F.);
#43=ORIENTED_EDGE('',*,*,#203,.T.);
#44=ORIENTED_EDGE('',*,*,#204,.F.);
#45=ORIENTED_EDGE('',*,*,#205,.T.);
#46=ORIENTED_EDGE('',*,*,#206,.F.);
#47=ORIENTED_EDGE('',*,*,#207,.F.);
#48=ORIENTED_EDGE('',*,*,#208,.F.);
#49=ORIENTED_EDGE('',*,*,#209,.F.);
#50=ORIENTED_EDGE('',*,*,#210,.T.);
#51=ORIENTED_EDGE('',*,*,#211,.T.);
#52=ORIENTED_EDGE('',*,*,#212,.F.);
#53=ORIENTED_EDGE('',*,*,#213,.T.);
#54=ORIENTED_EDGE('',*,*,#214,.T.);
#55=ORIENTED_EDGE('',*,*,#215,.T.);
#56=ORIENTED_EDGE('',*,*,#206,.T.);
#57=ORIENTED_EDGE('',*,*,#216,.F.);
#58=ORIENTED_EDGE('',*,*,#217,.T.);
#59=ORIENTED_EDGE('',*,*,#218,.T.);
#60=ORIENTED_EDGE('',*,*,#219,.T.);
#61=ORIENTED_EDGE('',*,*,#220,.T.);
#62=ORIENTED_EDGE('',*,*,#221,.F.);
#63=ORIENTED_EDGE('',*,*,#222,.T.);
#64=ORIENTED_EDGE('',*,*,#211,.F.);
#65=ORIENTED_EDGE('',*,*,#223,.F.);
#66=ORIENTED_EDGE('',*,*,#224,.F.);
#67=ORIENTED_EDGE('',*,*,#225,.T.);
#68=ORIENTED_EDGE('',*,*,#226,.F.);
#69=ORIENTED_EDGE('',*,*,#227,.T.);
#70=ORIENTED_EDGE('',*,*,#228,.T.);
#71=ORIENTED_EDGE('',*,*,#229,.T.);
#72=ORIENTED_EDGE('',*,*,#230,.F.);
#73=ORIENTED_EDGE('',*,*,#231,.T.);
#74=ORIENTED_EDGE('',*,*,#232,.F.);
#75=ORIENTED_EDGE('',*,*,#233,.T.);
#76=ORIENTED_EDGE('',*,*,#234,.F.);
#77=ORIENTED_EDGE('',*,*,#235,.T.);
#78=ORIENTED_EDGE('',*,*,#236,.T.);
#79=ORIENTED_EDGE('',*,*,#237,.T.);
#80=ORIENTED_EDGE('',*,*,#201,.T.);
#81=ORIENTED_EDGE('',*,*,#238,.F.);
#82=ORIENTED_EDGE('',*,*,#239,.T.);
#83=ORIENTED_EDGE('',*,*,#240,.T.);
#84=ORIENTED_EDGE('',*,*,#241,.F.);
#85=ORIENTED_EDGE('',*,*,#242,.T.);
#86=ORIENTED_EDGE('',*,*,#243,.F.);
#87=ORIENTED_EDGE('',*,*,#244,.T.);
#88=ORIENTED_EDGE('',*,*,#228,.F.);
#89=ORIENTED_EDGE('',*,*,#245,.T.);
#90=ORIENTED_EDGE('',*,*,#219,.F.);
#91=ORIENTED_EDGE('',*,*,#246,.T.);
#92=ORIENTED_EDGE('',*,*,#212,.T.);
#93=ORIENTED_EDGE('',*,*,#247,.T.);
#94=ORIENTED_EDGE('',*,*,#234,.T.);
#95=ORIENTED_EDGE('',*,*,#248,.T.);
#96=ORIENTED_EDGE('',*,*,#241,.T.);
#97=ORIENTED_EDGE('',*,*,#232,.T.);
#98=ORIENTED_EDGE('',*,*,#230,.T.);
#99=ORIENTED_EDGE('',*,*,#243,.T.);
#100=ORIENTED_EDGE('',*,*,#205,.F.);
#101=ORIENTED_EDGE('',*,*,#249,.F.);
#102=ORIENTED_EDGE('',*,*,#250,.F.);
#103=ORIENTED_EDGE('',*,*,#216,.T.);
#104=ORIENTED_EDGE('',*,*,#249,.T.);
#105=ORIENTED_EDGE('',*,*,#204,.T.);
#106=ORIENTED_EDGE('',*,*,#251,.F.);
#107=ORIENTED_EDGE('',*,*,#252,.T.);
#108=ORIENTED_EDGE('',*,*,#203,.F.);
#109=ORIENTED_EDGE('',*,*,#253,.F.);
#110=ORIENTED_EDGE('',*,*,#254,.F.);
#111=ORIENTED_EDGE('',*,*,#251,.T.);
#112=ORIENTED_EDGE('',*,*,#253,.T.);
#113=ORIENTED_EDGE('',*,*,#202,.T.);
#114=ORIENTED_EDGE('',*,*,#237,.F.);
#115=ORIENTED_EDGE('',*,*,#255,.T.);
#116=ORIENTED_EDGE('',*,*,#242,.F.);
#117=ORIENTED_EDGE('',*,*,#236,.F.);
#118=ORIENTED_EDGE('',*,*,#256,.T.);
#119=ORIENTED_EDGE('',*,*,#217,.F.);
#120=ORIENTED_EDGE('',*,*,#250,.T.);
#121=ORIENTED_EDGE('',*,*,#252,.F.);
#122=ORIENTED_EDGE('',*,*,#254,.T.);
#123=ORIENTED_EDGE('',*,*,#255,.F.);
#124=ORIENTED_EDGE('',*,*,#210,.F.);
#125=ORIENTED_EDGE('',*,*,#257,.F.);
#126=ORIENTED_EDGE('',*,*,#258,.F.);
#127=ORIENTED_EDGE('',*,*,#223,.T.);
#128=ORIENTED_EDGE('',*,*,#257,.T.);
#129=ORIENTED_EDGE('',*,*,#209,.T.);
#130=ORIENTED_EDGE('',*,*,#259,.F.);
#131=ORIENTED_EDGE('',*,*,#260,.T.);
#132=ORIENTED_EDGE('',*,*,#259,.T.);
#133=ORIENTED_EDGE('',*,*,#208,.T.);
#134=ORIENTED_EDGE('',*,*,#261,.F.);
#135=ORIENTED_EDGE('',*,*,#262,.T.);
#136=ORIENTED_EDGE('',*,*,#261,.T.);
#137=ORIENTED_EDGE('',*,*,#207,.T.);
#138=ORIENTED_EDGE('',*,*,#215,.F.);
#139=ORIENTED_EDGE('',*,*,#263,.T.);
#140=ORIENTED_EDGE('',*,*,#233,.F.);
#141=ORIENTED_EDGE('',*,*,#214,.F.);
#142=ORIENTED_EDGE('',*,*,#264,.T.);
#143=ORIENTED_EDGE('',*,*,#224,.T.);
#144=ORIENTED_EDGE('',*,*,#258,.T.);
#145=ORIENTED_EDGE('',*,*,#260,.F.);
#146=ORIENTED_EDGE('',*,*,#262,.F.);
#147=ORIENTED_EDGE('',*,*,#263,.F.);
#148=ORIENTED_EDGE('',*,*,#265,.T.);
#149=ORIENTED_EDGE('',*,*,#196,.T.);
#150=ORIENTED_EDGE('',*,*,#222,.F.);
#151=ORIENTED_EDGE('',*,*,#266,.T.);
#152=ORIENTED_EDGE('',*,*,#200,.F.);
#153=ORIENTED_EDGE('',*,*,#267,.F.);
#154=ORIENTED_EDGE('',*,*,#268,.F.);
#155=ORIENTED_EDGE('',*,*,#238,.T.);
#156=ORIENTED_EDGE('',*,*,#199,.F.);
#157=ORIENTED_EDGE('',*,*,#269,.F.);
#158=ORIENTED_EDGE('',*,*,#270,.F.);
#159=ORIENTED_EDGE('',*,*,#267,.T.);
#160=ORIENTED_EDGE('',*,*,#198,.F.);
#161=ORIENTED_EDGE('',*,*,#271,.F.);
#162=ORIENTED_EDGE('',*,*,#272,.F.);
#163=ORIENTED_EDGE('',*,*,#269,.T.);
#164=ORIENTED_EDGE('',*,*,#271,.T.);
#165=ORIENTED_EDGE('',*,*,#197,.T.);
#166=ORIENTED_EDGE('',*,*,#265,.F.);
#167=ORIENTED_EDGE('',*,*,#273,.T.);
#168=ORIENTED_EDGE('',*,*,#221,.T.);
#169=ORIENTED_EDGE('',*,*,#274,.T.);
#170=ORIENTED_EDGE('',*,*,#226,.T.);
#171=ORIENTED_EDGE('',*,*,#275,.T.);
#172=ORIENTED_EDGE('',*,*,#239,.F.);
#173=ORIENTED_EDGE('',*,*,#268,.T.);
#174=ORIENTED_EDGE('',*,*,#270,.T.);
#175=ORIENTED_EDGE('',*,*,#272,.T.);
#176=ORIENTED_EDGE('',*,*,#273,.F.);
#177=ORIENTED_EDGE('',*,*,#266,.F.);
#178=ORIENTED_EDGE('',*,*,#231,.F.);
#179=ORIENTED_EDGE('',*,*,#244,.F.);
#180=ORIENTED_EDGE('',*,*,#274,.F.);
#181=ORIENTED_EDGE('',*,*,#220,.F.);
#182=ORIENTED_EDGE('',*,*,#245,.F.);
#183=ORIENTED_EDGE('',*,*,#227,.F.);
#184=ORIENTED_EDGE('',*,*,#264,.F.);
#185=ORIENTED_EDGE('',*,*,#213,.F.);
#186=ORIENTED_EDGE('',*,*,#246,.F.);
#187=ORIENTED_EDGE('',*,*,#225,.F.);
#188=ORIENTED_EDGE('',*,*,#256,.F.);
#189=ORIENTED_EDGE('',*,*,#235,.F.);
#190=ORIENTED_EDGE('',*,*,#247,.F.);
#191=ORIENTED_EDGE('',*,*,#218,.F.);
#192=ORIENTED_EDGE('',*,*,#275,.F.);
#193=ORIENTED_EDGE('',*,*,#229,.F.);
#194=ORIENTED_EDGE('',*,*,#248,.F.);
#195=ORIENTED_EDGE('',*,*,#240,.F.);
#196=EDGE_CURVE('',#276,#277,#332,.T.);
#197=EDGE_CURVE('',#278,#276,#333,.T.);
#198=EDGE_CURVE('',#278,#279,#334,.T.);
#199=EDGE_CURVE('',#279,#280,#335,.T.);
#200=EDGE_CURVE('',#280,#281,#336,.T.);
#201=EDGE_CURVE('',#282,#281,#337,.T.);
#202=EDGE_CURVE('',#283,#282,#338,.T.);
#203=EDGE_CURVE('',#283,#284,#339,.T.);
#204=EDGE_CURVE('',#285,#284,#340,.T.);
#205=EDGE_CURVE('',#285,#286,#341,.T.);
#206=EDGE_CURVE('',#287,#286,#342,.T.);
#207=EDGE_CURVE('',#288,#287,#343,.T.);
#208=EDGE_CURVE('',#289,#288,#344,.T.);
#209=EDGE_CURVE('',#290,#289,#345,.T.);
#210=EDGE_CURVE('',#290,#291,#346,.T.);
#211=EDGE_CURVE('',#291,#277,#347,.T.);
#212=EDGE_CURVE('',#292,#293,#348,.T.);
#213=EDGE_CURVE('',#292,#294,#349,.F.);
#214=EDGE_CURVE('',#294,#295,#350,.T.);
#215=EDGE_CURVE('',#295,#287,#351,.T.);
#216=EDGE_CURVE('',#296,#286,#352,.T.);
#217=EDGE_CURVE('',#296,#297,#353,.T.);
#218=EDGE_CURVE('',#297,#293,#354,.T.);
#219=EDGE_CURVE('',#298,#299,#355,.T.);
#220=EDGE_CURVE('',#299,#300,#356,.F.);
#221=EDGE_CURVE('',#301,#300,#357,.T.);
#222=EDGE_CURVE('',#301,#277,#358,.T.);
#223=EDGE_CURVE('',#302,#291,#359,.T.);
#224=EDGE_CURVE('',#303,#302,#360,.T.);
#225=EDGE_CURVE('',#303,#298,#361,.T.);
#226=EDGE_CURVE('',#304,#305,#362,.T.);
#227=EDGE_CURVE('',#304,#306,#363,.T.);
#228=EDGE_CURVE('',#306,#307,#364,.T.);
#229=EDGE_CURVE('',#307,#305,#365,.F.);
#230=EDGE_CURVE('',#308,#308,#12,.T.);
#231=EDGE_CURVE('',#309,#309,#13,.T.);
#232=EDGE_CURVE('',#310,#310,#14,.T.);
#233=EDGE_CURVE('',#311,#311,#15,.T.);
#234=EDGE_CURVE('',#312,#313,#366,.T.);
#235=EDGE_CURVE('',#312,#314,#367,.F.);
#236=EDGE_CURVE('',#314,#315,#368,.T.);
#237=EDGE_CURVE('',#315,#282,#369,.T.);
#238=EDGE_CURVE('',#316,#281,#370,.T.);
#239=EDGE_CURVE('',#316,#317,#371,.T.);
#240=EDGE_CURVE('',#317,#313,#372,.T.);
#241=EDGE_CURVE('',#318,#318,#16,.T.);
#242=EDGE_CURVE('',#319,#319,#17,.T.);
#243=EDGE_CURVE('',#320,#320,#18,.T.);
#244=EDGE_CURVE('',#321,#321,#19,.T.);
#245=EDGE_CURVE('',#306,#299,#20,.F.);
#246=EDGE_CURVE('',#298,#292,#21,.F.);
#247=EDGE_CURVE('',#293,#312,#22,.F.);
#248=EDGE_CURVE('',#313,#307,#23,.F.);
#249=EDGE_CURVE('',#322,#285,#373,.T.);
#250=EDGE_CURVE('',#296,#322,#374,.T.);
#251=EDGE_CURVE('',#323,#284,#375,.T.);
#252=EDGE_CURVE('',#323,#322,#376,.T.);
#253=EDGE_CURVE('',#324,#283,#377,.T.);
#254=EDGE_CURVE('',#323,#324,#378,.T.);
#255=EDGE_CURVE('',#315,#324,#379,.T.);
#256=EDGE_CURVE('',#314,#297,#24,.T.);
#257=EDGE_CURVE('',#325,#290,#380,.T.);
#258=EDGE_CURVE('',#302,#325,#381,.T.);
#259=EDGE_CURVE('',#326,#289,#382,.T.);
#260=EDGE_CURVE('',#326,#325,#383,.T.);
#261=EDGE_CURVE('',#327,#288,#384,.T.);
#262=EDGE_CURVE('',#327,#326,#385,.T.);
#263=EDGE_CURVE('',#295,#327,#386,.T.);
#264=EDGE_CURVE('',#294,#303,#25,.T.);
#265=EDGE_CURVE('',#328,#276,#387,.T.);
#266=EDGE_CURVE('',#301,#328,#388,.T.);
#267=EDGE_CURVE('',#329,#280,#389,.T.);
#268=EDGE_CURVE('',#316,#329,#390,.T.);
#269=EDGE_CURVE('',#330,#279,#391,.T.);
#270=EDGE_CURVE('',#329,#330,#392,.T.);
#271=EDGE_CURVE('',#331,#278,#393,.T.);
#272=EDGE_CURVE('',#330,#331,#394,.T.);
#273=EDGE_CURVE('',#328,#331,#395,.T.);
#274=EDGE_CURVE('',#300,#304,#26,.T.);
#275=EDGE_CURVE('',#305,#317,#27,.T.);
#276=VERTEX_POINT('',#816);
#277=VERTEX_POINT('',#817);
#278=VERTEX_POINT('',#819);
#279=VERTEX_POINT('',#821);
#280=VERTEX_POINT('',#823);
#281=VERTEX_POINT('',#825);
#282=VERTEX_POINT('',#827);
#283=VERTEX_POINT('',#829);
#284=VERTEX_POINT('',#831);
#285=VERTEX_POINT('',#833);
#286=VERTEX_POINT('',#835);
#287=VERTEX_POINT('',#837);
#288=VERTEX_POINT('',#839);
#289=VERTEX_POINT('',#841);
#290=VERTEX_POINT('',#843);
#291=VERTEX_POINT('',#845);
#292=VERTEX_POINT('',#849);
#293=VERTEX_POINT('',#850);
#294=VERTEX_POINT('',#852);
#295=VERTEX_POINT('',#854);
#296=VERTEX_POINT('',#857);
#297=VERTEX_POINT('',#859);
#298=VERTEX_POINT('',#863);
#299=VERTEX_POINT('',#864);
#300=VERTEX_POINT('',#866);
#301=VERTEX_POINT('',#868);
#302=VERTEX_POINT('',#871);
#303=VERTEX_POINT('',#873);
#304=VERTEX_POINT('',#877);
#305=VERTEX_POINT('',#878);
#306=VERTEX_POINT('',#880);
#307=VERTEX_POINT('',#882);
#308=VERTEX_POINT('',#886);
#309=VERTEX_POINT('',#888);
#310=VERTEX_POINT('',#891);
#311=VERTEX_POINT('',#893);
#312=VERTEX_POINT('',#896);
#313=VERTEX_POINT('',#897);
#314=VERTEX_POINT('',#899);
#315=VERTEX_POINT('',#901);
#316=VERTEX_POINT('',#904);
#317=VERTEX_POINT('',#906);
#318=VERTEX_POINT('',#910);
#319=VERTEX_POINT('',#912);
#320=VERTEX_POINT('',#915);
#321=VERTEX_POINT('',#917);
#322=VERTEX_POINT('',#925);
#323=VERTEX_POINT('',#929);
#324=VERTEX_POINT('',#933);
#325=VERTEX_POINT('',#941);
#326=VERTEX_POINT('',#945);
#327=VERTEX_POINT('',#949);
#328=VERTEX_POINT('',#957);
#329=VERTEX_POINT('',#961);
#330=VERTEX_POINT('',#965);
#331=VERTEX_POINT('',#969);
#332=LINE('',#815,#396);
#333=LINE('',#818,#397);
#334=LINE('',#820,#398);
#335=LINE('',#822,#399);
#336=LINE('',#824,#400);
#337=LINE('',#826,#401);
#338=LINE('',#828,#402);
#339=LINE('',#830,#403);
#340=LINE('',#832,#404);
#341=LINE('',#834,#405);
#342=LINE('',#836,#406);
#343=LINE('',#838,#407);
#344=LINE('',#840,#408);
#345=LINE('',#842,#409);
#346=LINE('',#844,#410);
#347=LINE('',#846,#411);
#348=LINE('',#848,#412);
#349=LINE('',#851,#413);
#350=LINE('',#853,#414);
#351=LINE('',#855,#415);
#352=LINE('',#856,#416);
#353=LINE('',#858,#417);
#354=LINE('',#860,#418);
#355=LINE('',#862,#419);
#356=LINE('',#865,#420);
#357=LINE('',#867,#421);
#358=LINE('',#869,#422);
#359=LINE('',#870,#423);
#360=LINE('',#872,#424);
#361=LINE('',#874,#425);
#362=LINE('',#876,#426);
#363=LINE('',#879,#427);
#364=LINE('',#881,#428);
#365=LINE('',#883,#429);
#366=LINE('',#895,#430);
#367=LINE('',#898,#431);
#368=LINE('',#900,#432);
#369=LINE('',#902,#433);
#370=LINE('',#903,#434);
#371=LINE('',#905,#435);
#372=LINE('',#907,#436);
#373=LINE('',#924,#437);
#374=LINE('',#926,#438);
#375=LINE('',#928,#439);
#376=LINE('',#930,#440);
#377=LINE('',#932,#441);
#378=LINE('',#934,#442);
#379=LINE('',#936,#443);
#380=LINE('',#940,#444);
#381=LINE('',#942,#445);
#382=LINE('',#944,#446);
#383=LINE('',#946,#447);
#384=LINE('',#948,#448);
#385=LINE('',#950,#449);
#386=LINE('',#952,#450);
#387=LINE('',#956,#451);
#388=LINE('',#958,#452);
#389=LINE('',#960,#453);
#390=LINE('',#962,#454);
#391=LINE('',#964,#455);
#392=LINE('',#966,#456);
#393=LINE('',#968,#457);
#394=LINE('',#970,#458);
#395=LINE('',#972,#459);
#396=VECTOR('',#659,1.);
#397=VECTOR('',#660,1.);
#398=VECTOR('',#661,1.);
#399=VECTOR('',#662,1.);
#400=VECTOR('',#663,1.);
#401=VECTOR('',#664,1.);
#402=VECTOR('',#665,1.);
#403=VECTOR('',#666,1.);
#404=VECTOR('',#667,1.);
#405=VECTOR('',#668,1.);
#406=VECTOR('',#669,1.);
#407=VECTOR('',#670,1.);
#408=VECTOR('',#671,1.);
#409=VECTOR('',#672,1.);
#410=VECTOR('',#673,1.);
#411=VECTOR('',#674,1.);
#412=VECTOR('',#677,1.);
#413=VECTOR('',#678,1.);
#414=VECTOR('',#679,1.);
#415=VECTOR('',#680,1.);
#416=VECTOR('',#681,1.);
#417=VECTOR('',#682,1.);
#418=VECTOR('',#683,1.);
#419=VECTOR('',#686,1.);
#420=VECTOR('',#687,1.);
#421=VECTOR('',#688,1.);
#422=VECTOR('',#689,1.);
#423=VECTOR('',#690,1.);
#424=VECTOR('',#691,1.);
#425=VECTOR('',#692,1.);
#426=VECTOR('',#695,1.);
#427=VECTOR('',#696,1.);
#428=VECTOR('',#697,1.);
#429=VECTOR('',#698,1.);
#430=VECTOR('',#713,1.);
#431=VECTOR('',#714,1.);
#432=VECTOR('',#715,1.);
#433=VECTOR('',#716,1.);
#434=VECTOR('',#717,1.);
#435=VECTOR('',#718,1.);
#436=VECTOR('',#719,1.);
#437=VECTOR('',#744,1.);
#438=VECTOR('',#745,1.);
#439=VECTOR('',#748,1.);
#440=VECTOR('',#749,1.);
#441=VECTOR('',#752,1.);
#442=VECTOR('',#753,1.);
#443=VECTOR('',#756,1.);
#444=VECTOR('',#763,1.);
#445=VECTOR('',#764,1.);
#446=VECTOR('',#767,1.);
#447=VECTOR('',#768,1.);
#448=VECTOR('',#771,1.);
#449=VECTOR('',#772,1.);
#450=VECTOR('',#775,1.);
#451=VECTOR('',#782,1.);
#452=VECTOR('',#783,1.);
#453=VECTOR('',#786,1.);
#454=VECTOR('',#787,1.);
#455=VECTOR('',#790,1.);
#456=VECTOR('',#791,1.);
#457=VECTOR('',#794,1.);
#458=VECTOR('',#795,1.);
#459=VECTOR('',#798,1.);
#460=EDGE_LOOP('',(#36,#37,#38,#39,#40,#41,#42,#43,#44,#45,#46,#47,#48,
#49,#50,#51));
#461=EDGE_LOOP('',(#52,#53,#54,#55,#56,#57,#58,#59));
#462=EDGE_LOOP('',(#60,#61,#62,#63,#64,#65,#66,#67));
#463=EDGE_LOOP('',(#68,#69,#70,#71));
#464=EDGE_LOOP('',(#72));
#465=EDGE_LOOP('',(#73));
#466=EDGE_LOOP('',(#74));
#467=EDGE_LOOP('',(#75));
#468=EDGE_LOOP('',(#76,#77,#78,#79,#80,#81,#82,#83));
#469=EDGE_LOOP('',(#84));
#470=EDGE_LOOP('',(#85));
#471=EDGE_LOOP('',(#86));
#472=EDGE_LOOP('',(#87));
#473=EDGE_LOOP('',(#88,#89,#90,#91,#92,#93,#94,#95));
#474=EDGE_LOOP('',(#96));
#475=EDGE_LOOP('',(#97));
#476=EDGE_LOOP('',(#98));
#477=EDGE_LOOP('',(#99));
#478=EDGE_LOOP('',(#100,#101,#102,#103));
#479=EDGE_LOOP('',(#104,#105,#106,#107));
#480=EDGE_LOOP('',(#108,#109,#110,#111));
#481=EDGE_LOOP('',(#112,#113,#114,#115));
#482=EDGE_LOOP('',(#116));
#483=EDGE_LOOP('',(#117,#118,#119,#120,#121,#122,#123));
#484=EDGE_LOOP('',(#124,#125,#126,#127));
#485=EDGE_LOOP('',(#128,#129,#130,#131));
#486=EDGE_LOOP('',(#132,#133,#134,#135));
#487=EDGE_LOOP('',(#136,#137,#138,#139));
#488=EDGE_LOOP('',(#140));
#489=EDGE_LOOP('',(#141,#142,#143,#144,#145,#146,#147));
#490=EDGE_LOOP('',(#148,#149,#150,#151));
#491=EDGE_LOOP('',(#152,#153,#154,#155));
#492=EDGE_LOOP('',(#156,#157,#158,#159));
#493=EDGE_LOOP('',(#160,#161,#162,#163));
#494=EDGE_LOOP('',(#164,#165,#166,#167));
#495=EDGE_LOOP('',(#168,#169,#170,#171,#172,#173,#174,#175,#176,#177));
#496=EDGE_LOOP('',(#178));
#497=EDGE_LOOP('',(#179));
#498=EDGE_LOOP('',(#180,#181,#182,#183));
#499=EDGE_LOOP('',(#184,#185,#186,#187));
#500=EDGE_LOOP('',(#188,#189,#190,#191));
#501=EDGE_LOOP('',(#192,#193,#194,#195));
#502=FACE_BOUND('',#460,.T.);
#503=FACE_BOUND('',#461,.T.);
#504=FACE_BOUND('',#462,.T.);
#505=FACE_BOUND('',#463,.T.);
#506=FACE_BOUND('',#464,.T.);
#507=FACE_BOUND('',#465,.T.);
#508=FACE_BOUND('',#466,.T.);
#509=FACE_BOUND('',#467,.T.);
#510=FACE_BOUND('',#468,.T.);
#511=FACE_BOUND('',#469,.T.);
#512=FACE_BOUND('',#470,.T.);
#513=FACE_BOUND('',#471,.T.);
#514=FACE_BOUND('',#472,.T.);
#515=FACE_BOUND('',#473,.T.);
#516=FACE_BOUND('',#474,.T.);
#517=FACE_BOUND('',#475,.T.);
#518=FACE_BOUND('',#476,.T.);
#519=FACE_BOUND('',#477,.T.);
#520=FACE_BOUND('',#478,.T.);
#521=FACE_BOUND('',#479,.T.);
#522=FACE_BOUND('',#480,.T.);
#523=FACE_BOUND('',#481,.T.);
#524=FACE_BOUND('',#482,.T.);
#525=FACE_BOUND('',#483,.T.);
#526=FACE_BOUND('',#484,.T.);
#527=FACE_BOUND('',#485,.T.);
#528=FACE_BOUND('',#486,.T.);
#529=FACE_BOUND('',#487,.T.);
#530=FACE_BOUND('',#488,.T.);
#531=FACE_BOUND('',#489,.T.);
#532=FACE_BOUND('',#490,.T.);
#533=FACE_BOUND('',#491,.T.);
#534=FACE_BOUND('',#492,.T.);
#535=FACE_BOUND('',#493,.T.);
#536=FACE_BOUND('',#494,.T.);
#537=FACE_BOUND('',#495,.T.);
#538=FACE_BOUND('',#496,.T.);
#539=FACE_BOUND('',#497,.T.);
#540=FACE_BOUND('',#498,.T.);
#541=FACE_BOUND('',#499,.T.);
#542=FACE_BOUND('',#500,.T.);
#543=FACE_BOUND('',#501,.T.);
#544=PLANE('',#609);
#545=PLANE('',#610);
#546=PLANE('',#611);
#547=PLANE('',#612);
#548=PLANE('',#619);
#549=PLANE('',#626);
#550=PLANE('',#631);
#551=PLANE('',#632);
#552=PLANE('',#633);
#553=PLANE('',#634);
#554=PLANE('',#635);
#555=PLANE('',#637);
#556=PLANE('',#638);
#557=PLANE('',#639);
#558=PLANE('',#640);
#559=PLANE('',#641);
#560=PLANE('',#643);
#561=PLANE('',#644);
#562=PLANE('',#645);
#563=PLANE('',#646);
#564=PLANE('',#647);
#565=PLANE('',#648);
#566=ADVANCED_FACE('',(#502),#544,.T.);
#567=ADVANCED_FACE('',(#503),#545,.T.);
#568=ADVANCED_FACE('',(#504),#546,.F.);
#569=ADVANCED_FACE('',(#505),#547,.F.);
#570=ADVANCED_FACE('',(#506,#507),#28,.F.);
#571=ADVANCED_FACE('',(#508,#509),#29,.F.);
#572=ADVANCED_FACE('',(#510),#548,.T.);
#573=ADVANCED_FACE('',(#511,#512),#30,.F.);
#574=ADVANCED_FACE('',(#513,#514),#31,.F.);
#575=ADVANCED_FACE('',(#515,#516,#517,#518,#519),#549,.F.);
#576=ADVANCED_FACE('',(#520),#550,.F.);
#577=ADVANCED_FACE('',(#521),#551,.T.);
#578=ADVANCED_FACE('',(#522),#552,.F.);
#579=ADVANCED_FACE('',(#523),#553,.T.);
#580=ADVANCED_FACE('',(#524,#525),#554,.T.);
#581=ADVANCED_FACE('',(#526),#555,.F.);
#582=ADVANCED_FACE('',(#527),#556,.T.);
#583=ADVANCED_FACE('',(#528),#557,.T.);
#584=ADVANCED_FACE('',(#529),#558,.T.);
#585=ADVANCED_FACE('',(#530,#531),#559,.T.);
#586=ADVANCED_FACE('',(#532),#560,.T.);
#587=ADVANCED_FACE('',(#533),#561,.F.);
#588=ADVANCED_FACE('',(#534),#562,.F.);
#589=ADVANCED_FACE('',(#535),#563,.F.);
#590=ADVANCED_FACE('',(#536),#564,.T.);
#591=ADVANCED_FACE('',(#537,#538,#539),#565,.T.);
#592=ADVANCED_FACE('',(#540),#32,.T.);
#593=ADVANCED_FACE('',(#541),#33,.T.);
#594=ADVANCED_FACE('',(#542),#34,.T.);
#595=ADVANCED_FACE('',(#543),#35,.T.);
#596=CLOSED_SHELL('',(#566,#567,#568,#569,#570,#571,#572,#573,#574,#575,
#576,#577,#578,#579,#580,#581,#582,#583,#584,#585,#586,#587,#588,#589,#590,
#591,#592,#593,#594,#595));
#597=STYLED_ITEM('',(#598),#605);
#598=PRESENTATION_STYLE_ASSIGNMENT((#599));
#599=SURFACE_STYLE_USAGE(.BOTH.,#600);
#600=SURFACE_SIDE_STYLE('',(#601));
#601=SURFACE_STYLE_FILL_AREA(#602);
#602=FILL_AREA_STYLE('',(#603));
#603=FILL_AREA_STYLE_COLOUR('',#604);
#604=COLOUR_RGB('',0.615686274509804,0.811764705882353,0.929411764705882);
#605=MANIFOLD_SOLID_BREP('Bottom',#596);
#606=SHAPE_DEFINITION_REPRESENTATION(#986,#607);
#607=SHAPE_REPRESENTATION('Bottom',(#608),#981);
#608=AXIS2_PLACEMENT_3D('',#813,#655,#656);
#609=AXIS2_PLACEMENT_3D('',#814,#657,#658);
#610=AXIS2_PLACEMENT_3D('',#847,#675,#676);
#611=AXIS2_PLACEMENT_3D('',#861,#684,#685);
#612=AXIS2_PLACEMENT_3D('',#875,#693,#694);
#613=AXIS2_PLACEMENT_3D('',#884,#699,#700);
#614=AXIS2_PLACEMENT_3D('',#885,#701,#702);
#615=AXIS2_PLACEMENT_3D('',#887,#703,#704);
#616=AXIS2_PLACEMENT_3D('',#889,#705,#706);
#617=AXIS2_PLACEMENT_3D('',#890,#707,#708);
#618=AXIS2_PLACEMENT_3D('',#892,#709,#710);
#619=AXIS2_PLACEMENT_3D('',#894,#711,#712);
#620=AXIS2_PLACEMENT_3D('',#908,#720,#721);
#621=AXIS2_PLACEMENT_3D('',#909,#722,#723);
#622=AXIS2_PLACEMENT_3D('',#911,#724,#725);
#623=AXIS2_PLACEMENT_3D('',#913,#726,#727);
#624=AXIS2_PLACEMENT_3D('',#914,#728,#729);
#625=AXIS2_PLACEMENT_3D('',#916,#730,#731);
#626=AXIS2_PLACEMENT_3D('',#918,#732,#733);
#627=AXIS2_PLACEMENT_3D('',#919,#734,#735);
#628=AXIS2_PLACEMENT_3D('',#920,#736,#737);
#629=AXIS2_PLACEMENT_3D('',#921,#738,#739);
#630=AXIS2_PLACEMENT_3D('',#922,#740,#741);
#631=AXIS2_PLACEMENT_3D('',#923,#742,#743);
#632=AXIS2_PLACEMENT_3D('',#927,#746,#747);
#633=AXIS2_PLACEMENT_3D('',#931,#750,#751);
#634=AXIS2_PLACEMENT_3D('',#935,#754,#755);
#635=AXIS2_PLACEMENT_3D('',#937,#757,#758);
#636=AXIS2_PLACEMENT_3D('',#938,#759,#760);
#637=AXIS2_PLACEMENT_3D('',#939,#761,#762);
#638=AXIS2_PLACEMENT_3D('',#943,#765,#766);
#639=AXIS2_PLACEMENT_3D('',#947,#769,#770);
#640=AXIS2_PLACEMENT_3D('',#951,#773,#774);
#641=AXIS2_PLACEMENT_3D('',#953,#776,#777);
#642=AXIS2_PLACEMENT_3D('',#954,#778,#779);
#643=AXIS2_PLACEMENT_3D('',#955,#780,#781);
#644=AXIS2_PLACEMENT_3D('',#959,#784,#785);
#645=AXIS2_PLACEMENT_3D('',#963,#788,#789);
#646=AXIS2_PLACEMENT_3D('',#967,#792,#793);
#647=AXIS2_PLACEMENT_3D('',#971,#796,#797);
#648=AXIS2_PLACEMENT_3D('',#973,#799,#800);
#649=AXIS2_PLACEMENT_3D('',#974,#801,#802);
#650=AXIS2_PLACEMENT_3D('',#975,#803,#804);
#651=AXIS2_PLACEMENT_3D('',#976,#805,#806);
#652=AXIS2_PLACEMENT_3D('',#977,#807,#808);
#653=AXIS2_PLACEMENT_3D('',#978,#809,#810);
#654=AXIS2_PLACEMENT_3D('',#979,#811,#812);
#655=DIRECTION('',(0.,0.,1.));
#656=DIRECTION('',(1.,0.,0.));
#657=DIRECTION('',(0.,0.,1.));
#658=DIRECTION('',(1.,0.,0.));
#659=DIRECTION('',(-1.,0.,0.));
#660=DIRECTION('',(2.75434907369544E-16,1.,0.));
#661=DIRECTION('',(1.,0.,0.));
#662=DIRECTION('',(2.7171390715251E-16,1.,0.));
#663=DIRECTION('',(1.,0.,0.));
#664=DIRECTION('',(2.7399383628459E-16,-1.,0.));
#665=DIRECTION('',(1.,1.38777878078145E-15,0.));
#666=DIRECTION('',(3.04004114081368E-16,1.,0.));
#667=DIRECTION('',(1.,0.,0.));
#668=DIRECTION('',(0.,1.,0.));
#669=DIRECTION('',(1.,1.55930200087803E-16,0.));
#670=DIRECTION('',(0.,1.,0.));
#671=DIRECTION('',(1.,0.,0.));
#672=DIRECTION('',(0.,1.,0.));
#673=DIRECTION('',(-1.,0.,0.));
#674=DIRECTION('',(0.,-1.,0.));
#675=DIRECTION('',(-1.55930200087803E-16,1.,0.));
#676=DIRECTION('',(-1.,-1.55930200087803E-16,0.));
#677=DIRECTION('',(1.,1.55930200087803E-16,0.));
#678=DIRECTION('',(0.,0.,-1.));
#679=DIRECTION('',(1.,0.,0.));
#680=DIRECTION('',(0.,0.,-1.));
#681=DIRECTION('',(0.,0.,-1.));
#682=DIRECTION('',(1.,1.55930200087803E-16,0.));
#683=DIRECTION('',(0.,0.,-1.));
#684=DIRECTION('',(1.,0.,0.));
#685=DIRECTION('',(0.,0.,-1.));
#686=DIRECTION('',(0.,-1.,0.));
#687=DIRECTION('',(0.,0.,-1.));
#688=DIRECTION('',(1.31207221403181E-16,-1.,0.));
#689=DIRECTION('',(0.,0.,-1.));
#690=DIRECTION('',(0.,0.,-1.));
#691=DIRECTION('',(0.,-1.,0.));
#692=DIRECTION('',(0.,0.,-1.));
#693=DIRECTION('',(-1.37813185777701E-16,1.,0.));
#694=DIRECTION('',(-1.,-1.37813185777701E-16,0.));
#695=DIRECTION('',(1.,1.37813185777701E-16,0.));
#696=DIRECTION('',(0.,0.,-1.));
#697=DIRECTION('',(1.,1.37813185777701E-16,0.));
#698=DIRECTION('',(0.,0.,-1.));
#699=DIRECTION('',(0.,0.,-1.));
#700=DIRECTION('',(-1.,0.,0.));
#701=DIRECTION('',(0.,0.,1.));
#702=DIRECTION('',(1.,0.,0.));
#703=DIRECTION('',(0.,0.,1.));
#704=DIRECTION('',(1.,0.,0.));
#705=DIRECTION('',(0.,0.,-1.));
#706=DIRECTION('',(-1.,0.,0.));
#707=DIRECTION('',(0.,0.,1.));
#708=DIRECTION('',(1.,0.,0.));
#709=DIRECTION('',(0.,0.,1.));
#710=DIRECTION('',(1.,0.,0.));
#711=DIRECTION('',(1.,2.7399383628459E-16,0.));
#712=DIRECTION('',(-2.7399383628459E-16,1.,0.));
#713=DIRECTION('',(2.7399383628459E-16,-1.,0.));
#714=DIRECTION('',(0.,0.,-1.));
#715=DIRECTION('',(2.7399383628459E-16,-1.,0.));
#716=DIRECTION('',(0.,0.,-1.));
#717=DIRECTION('',(0.,0.,-1.));
#718=DIRECTION('',(1.29517385047265E-16,-1.,0.));
#719=DIRECTION('',(0.,0.,-1.));
#720=DIRECTION('',(0.,0.,-1.));
#721=DIRECTION('',(-1.,0.,0.));
#722=DIRECTION('',(0.,0.,1.));
#723=DIRECTION('',(1.,0.,0.));
#724=DIRECTION('',(0.,0.,1.));
#725=DIRECTION('',(1.,0.,0.));
#726=DIRECTION('',(0.,0.,-1.));
#727=DIRECTION('',(-1.,0.,0.));
#728=DIRECTION('',(0.,0.,1.));
#729=DIRECTION('',(1.,0.,0.));
#730=DIRECTION('',(0.,0.,1.));
#731=DIRECTION('',(1.,0.,0.));
#732=DIRECTION('',(0.,0.,1.));
#733=DIRECTION('',(1.,0.,0.));
#734=DIRECTION('',(0.,0.,1.));
#735=DIRECTION('',(1.,0.,0.));
#736=DIRECTION('',(0.,0.,1.));
#737=DIRECTION('',(1.,0.,0.));
#738=DIRECTION('',(0.,0.,1.));
#739=DIRECTION('',(1.,0.,0.));
#740=DIRECTION('',(0.,0.,1.));
#741=DIRECTION('',(1.,0.,0.));
#742=DIRECTION('',(1.,0.,0.));
#743=DIRECTION('',(0.,0.,-1.));
#744=DIRECTION('',(0.,0.,-1.));
#745=DIRECTION('',(0.,-1.,0.));
#746=DIRECTION('',(0.,-1.,0.));
#747=DIRECTION('',(0.,0.,-1.));
#748=DIRECTION('',(0.,0.,-1.));
#749=DIRECTION('',(-1.,0.,0.));
#750=DIRECTION('',(1.,-3.04004114081368E-16,0.));
#751=DIRECTION('',(3.04004114081368E-16,1.,0.));
#752=DIRECTION('',(0.,0.,-1.));
#753=DIRECTION('',(-3.04004114081368E-16,-1.,0.));
#754=DIRECTION('',(1.38777878078145E-15,-1.,0.));
#755=DIRECTION('',(1.,1.38777878078145E-15,0.));
#756=DIRECTION('',(-1.,-1.38777878078145E-15,0.));
#757=DIRECTION('',(0.,0.,1.));
#758=DIRECTION('',(1.,0.,0.));
#759=DIRECTION('',(0.,0.,1.));
#760=DIRECTION('',(1.,0.,0.));
#761=DIRECTION('',(0.,1.,0.));
#762=DIRECTION('',(0.,0.,1.));
#763=DIRECTION('',(0.,0.,-1.));
#764=DIRECTION('',(1.,0.,0.));
#765=DIRECTION('',(1.,0.,0.));
#766=DIRECTION('',(0.,0.,-1.));
#767=DIRECTION('',(0.,0.,-1.));
#768=DIRECTION('',(0.,-1.,0.));
#769=DIRECTION('',(0.,-1.,0.));
#770=DIRECTION('',(0.,0.,-1.));
#771=DIRECTION('',(0.,0.,-1.));
#772=DIRECTION('',(-1.,0.,0.));
#773=DIRECTION('',(1.,0.,0.));
#774=DIRECTION('',(0.,0.,-1.));
#775=DIRECTION('',(0.,-1.,0.));
#776=DIRECTION('',(0.,0.,1.));
#777=DIRECTION('',(1.,0.,0.));
#778=DIRECTION('',(0.,0.,1.));
#779=DIRECTION('',(1.,0.,0.));
#780=DIRECTION('',(0.,1.,0.));
#781=DIRECTION('',(0.,0.,1.));
#782=DIRECTION('',(0.,0.,-1.));
#783=DIRECTION('',(1.,0.,0.));
#784=DIRECTION('',(0.,-1.,0.));
#785=DIRECTION('',(0.,0.,-1.));
#786=DIRECTION('',(0.,0.,-1.));
#787=DIRECTION('',(-1.,0.,0.));
#788=DIRECTION('',(1.,-2.7171390715251E-16,0.));
#789=DIRECTION('',(2.7171390715251E-16,1.,0.));
#790=DIRECTION('',(0.,0.,-1.));
#791=DIRECTION('',(-2.7171390715251E-16,-1.,0.));
#792=DIRECTION('',(0.,-1.,0.));
#793=DIRECTION('',(0.,0.,-1.));
#794=DIRECTION('',(0.,0.,-1.));
#795=DIRECTION('',(-1.,0.,0.));
#796=DIRECTION('',(1.,-2.75434907369544E-16,0.));
#797=DIRECTION('',(2.75434907369544E-16,1.,0.));
#798=DIRECTION('',(-2.75434907369544E-16,-1.,0.));
#799=DIRECTION('',(0.,0.,1.));
#800=DIRECTION('',(1.,0.,0.));
#801=DIRECTION('',(0.,0.,1.));
#802=DIRECTION('',(1.,0.,0.));
#803=DIRECTION('',(0.,0.,1.));
#804=DIRECTION('',(1.,0.,0.));
#805=DIRECTION('',(0.,0.,-1.));
#806=DIRECTION('',(-1.,0.,0.));
#807=DIRECTION('',(0.,0.,1.));
#808=DIRECTION('',(1.,0.,0.));
#809=DIRECTION('',(0.,0.,-1.));
#810=DIRECTION('',(-1.,0.,0.));
#811=DIRECTION('',(0.,0.,1.));
#812=DIRECTION('',(1.,0.,0.));
#813=CARTESIAN_POINT('',(0.,0.,0.));
#814=CARTESIAN_POINT('',(-2.77555756156289E-17,-1.38777878078145E-17,0.002));
#815=CARTESIAN_POINT('',(-2.77555756156289E-17,0.02157,0.002));
#816=CARTESIAN_POINT('',(-0.0957,0.02157,0.002));
#817=CARTESIAN_POINT('',(-0.1007,0.02157,0.002));
#818=CARTESIAN_POINT('',(-0.0957,1.24813328274509E-17,0.002));
#819=CARTESIAN_POINT('',(-0.0957,-0.0792,0.002));
#820=CARTESIAN_POINT('',(-2.77555756156289E-17,-0.0792,0.002));
#821=CARTESIAN_POINT('',(0.0957,-0.0792,0.002));
#822=CARTESIAN_POINT('',(0.0957,-3.98808087223097E-17,0.002));
#823=CARTESIAN_POINT('',(0.0957,0.02295,0.002));
#824=CARTESIAN_POINT('',(-2.77555756156289E-17,0.02295,0.002));
#825=CARTESIAN_POINT('',(0.1007,0.02295,0.002));
#826=CARTESIAN_POINT('',(0.1007,0.058875,0.002));
#827=CARTESIAN_POINT('',(0.1007,0.03355,0.002));
#828=CARTESIAN_POINT('',(-7.43155537108464E-17,0.03355,0.002));
#829=CARTESIAN_POINT('',(0.0957,0.03355,0.002));
#830=CARTESIAN_POINT('',(0.0957,-4.29709815254014E-17,0.002));
#831=CARTESIAN_POINT('',(0.0957,0.0792,0.002));
#832=CARTESIAN_POINT('',(-2.77555756156289E-17,0.0792,0.002));
#833=CARTESIAN_POINT('',(-0.0773,0.0792,0.002));
#834=CARTESIAN_POINT('',(-0.0773,-1.38777878078145E-17,0.002));
#835=CARTESIAN_POINT('',(-0.0773,0.0842,0.002));
#836=CARTESIAN_POINT('',(0.0117,0.0842,0.002));
#837=CARTESIAN_POINT('',(-0.0849,0.0842,0.002));
#838=CARTESIAN_POINT('',(-0.0849,-1.38777878078145E-17,0.002));
#839=CARTESIAN_POINT('',(-0.0849,0.0792,0.002));
#840=CARTESIAN_POINT('',(-2.77555756156289E-17,0.0792,0.002));
#841=CARTESIAN_POINT('',(-0.0957,0.0792,0.002));
#842=CARTESIAN_POINT('',(-0.0957,-1.38777878078145E-17,0.002));
#843=CARTESIAN_POINT('',(-0.0957,0.06889,0.002));
#844=CARTESIAN_POINT('',(-2.77555756156289E-17,0.06889,0.002));
#845=CARTESIAN_POINT('',(-0.1007,0.06889,0.002));
#846=CARTESIAN_POINT('',(-0.1007,0.076545,0.002));
#847=CARTESIAN_POINT('',(0.0117,0.0842,0.002));
#848=CARTESIAN_POINT('',(0.0117,0.0842,0.));
#849=CARTESIAN_POINT('',(-0.0957,0.0842,0.));
#850=CARTESIAN_POINT('',(0.0957,0.0842,0.));
#851=CARTESIAN_POINT('',(-0.0957,0.0842,0.008));
#852=CARTESIAN_POINT('',(-0.0957,0.0842,0.008));
#853=CARTESIAN_POINT('',(-0.0928,0.0842,0.008));
#854=CARTESIAN_POINT('',(-0.0849,0.0842,0.008));
#855=CARTESIAN_POINT('',(-0.0849,0.0842,0.008));
#856=CARTESIAN_POINT('',(-0.0773,0.0842,0.008));
#857=CARTESIAN_POINT('',(-0.0773,0.0842,0.008));
#858=CARTESIAN_POINT('',(0.0117,0.0842,0.008));
#859=CARTESIAN_POINT('',(0.0957,0.0842,0.008));
#860=CARTESIAN_POINT('',(0.0957,0.0842,0.002));
#861=CARTESIAN_POINT('',(-0.1007,0.076545,0.002));
#862=CARTESIAN_POINT('',(-0.1007,0.076545,0.));
#863=CARTESIAN_POINT('',(-0.1007,0.0792,0.));
#864=CARTESIAN_POINT('',(-0.1007,-0.0792,0.));
#865=CARTESIAN_POINT('',(-0.1007,-0.0792,0.002));
#866=CARTESIAN_POINT('',(-0.1007,-0.0792,0.008));
#867=CARTESIAN_POINT('',(-0.1007,-0.031315,0.008));
#868=CARTESIAN_POINT('',(-0.1007,0.02157,0.008));
#869=CARTESIAN_POINT('',(-0.1007,0.02157,0.008));
#870=CARTESIAN_POINT('',(-0.1007,0.06889,0.008));
#871=CARTESIAN_POINT('',(-0.1007,0.06889,0.008));
#872=CARTESIAN_POINT('',(-0.1007,0.076545,0.008));
#873=CARTESIAN_POINT('',(-0.1007,0.0792,0.008));
#874=CARTESIAN_POINT('',(-0.1007,0.0792,0.));
#875=CARTESIAN_POINT('',(-1.38777878078145E-17,-0.0842,0.002));
#876=CARTESIAN_POINT('',(-1.38777878078145E-17,-0.0842,0.008));
#877=CARTESIAN_POINT('',(-0.0957,-0.0842,0.008));
#878=CARTESIAN_POINT('',(0.0957,-0.0842,0.008));
#879=CARTESIAN_POINT('',(-0.0957,-0.0842,0.002));
#880=CARTESIAN_POINT('',(-0.0957,-0.0842,0.));
#881=CARTESIAN_POINT('',(-1.38777878078145E-17,-0.0842,0.));
#882=CARTESIAN_POINT('',(0.0957,-0.0842,0.));
#883=CARTESIAN_POINT('',(0.0957,-0.0842,0.008));
#884=CARTESIAN_POINT('',(0.0977,-0.0812,0.002));
#885=CARTESIAN_POINT('',(0.0977,-0.0812,0.));
#886=CARTESIAN_POINT('',(0.0987,-0.0812,0.));
#887=CARTESIAN_POINT('',(0.0977,-0.0812,0.008));
#888=CARTESIAN_POINT('',(0.0987,-0.0812,0.008));
#889=CARTESIAN_POINT('',(-0.0977,0.0812,0.002));
#890=CARTESIAN_POINT('',(-0.0977,0.0812,0.));
#891=CARTESIAN_POINT('',(-0.0967,0.0812,0.));
#892=CARTESIAN_POINT('',(-0.0977,0.0812,0.008));
#893=CARTESIAN_POINT('',(-0.0967,0.0812,0.008));
#894=CARTESIAN_POINT('',(0.1007,0.058875,0.002));
#895=CARTESIAN_POINT('',(0.1007,0.058875,0.));
#896=CARTESIAN_POINT('',(0.1007,0.0792,0.));
#897=CARTESIAN_POINT('',(0.1007,-0.0792,0.));
#898=CARTESIAN_POINT('',(0.1007,0.0792,0.002));
#899=CARTESIAN_POINT('',(0.1007,0.0792,0.008));
#900=CARTESIAN_POINT('',(0.1007,0.058875,0.008));
#901=CARTESIAN_POINT('',(0.1007,0.03355,0.008));
#902=CARTESIAN_POINT('',(0.1007,0.03355,0.008));
#903=CARTESIAN_POINT('',(0.1007,0.02295,0.008));
#904=CARTESIAN_POINT('',(0.1007,0.02295,0.008));
#905=CARTESIAN_POINT('',(0.1007,-0.030625,0.008));
#906=CARTESIAN_POINT('',(0.1007,-0.0792,0.008));
#907=CARTESIAN_POINT('',(0.1007,-0.0792,0.));
#908=CARTESIAN_POINT('',(0.0977,0.0812,0.002));
#909=CARTESIAN_POINT('',(0.0977,0.0812,0.));
#910=CARTESIAN_POINT('',(0.0987,0.0812,0.));
#911=CARTESIAN_POINT('',(0.0977,0.0812,0.008));
#912=CARTESIAN_POINT('',(0.0987,0.0812,0.008));
#913=CARTESIAN_POINT('',(-0.0977,-0.0812,0.002));
#914=CARTESIAN_POINT('',(-0.0977,-0.0812,0.));
#915=CARTESIAN_POINT('',(-0.0967,-0.0812,0.));
#916=CARTESIAN_POINT('',(-0.0977,-0.0812,0.008));
#917=CARTESIAN_POINT('',(-0.0967,-0.0812,0.008));
#918=CARTESIAN_POINT('',(-2.77555756156289E-17,-1.38777878078145E-17,0.));
#919=CARTESIAN_POINT('',(-0.0957,-0.0792,0.));
#920=CARTESIAN_POINT('',(-0.0957,0.0792,0.));
#921=CARTESIAN_POINT('',(0.0957,0.0792,0.));
#922=CARTESIAN_POINT('',(0.0957,-0.0792,0.));
#923=CARTESIAN_POINT('',(-0.0773,0.0817,0.008));
#924=CARTESIAN_POINT('',(-0.0773,0.0792,0.008));
#925=CARTESIAN_POINT('',(-0.0773,0.0792,0.008));
#926=CARTESIAN_POINT('',(-0.0773,0.0817,0.008));
#927=CARTESIAN_POINT('',(0.0092,0.0792,0.008));
#928=CARTESIAN_POINT('',(0.0957,0.0792,0.008));
#929=CARTESIAN_POINT('',(0.0957,0.0792,0.008));
#930=CARTESIAN_POINT('',(0.0092,0.0792,0.008));
#931=CARTESIAN_POINT('',(0.0957,0.056375,0.008));
#932=CARTESIAN_POINT('',(0.0957,0.03355,0.008));
#933=CARTESIAN_POINT('',(0.0957,0.03355,0.008));
#934=CARTESIAN_POINT('',(0.0957,0.056375,0.008));
#935=CARTESIAN_POINT('',(0.0982,0.03355,0.008));
#936=CARTESIAN_POINT('',(0.0982,0.03355,0.008));
#937=CARTESIAN_POINT('',(-2.77555756156289E-17,-1.38777878078145E-17,0.008));
#938=CARTESIAN_POINT('',(0.0957,0.0792,0.008));
#939=CARTESIAN_POINT('',(-0.0982,0.06889,0.008));
#940=CARTESIAN_POINT('',(-0.0957,0.06889,0.008));
#941=CARTESIAN_POINT('',(-0.0957,0.06889,0.008));
#942=CARTESIAN_POINT('',(-0.0982,0.06889,0.008));
#943=CARTESIAN_POINT('',(-0.0957,0.074045,0.008));
#944=CARTESIAN_POINT('',(-0.0957,0.0792,0.008));
#945=CARTESIAN_POINT('',(-0.0957,0.0792,0.008));
#946=CARTESIAN_POINT('',(-0.0957,0.074045,0.008));
#947=CARTESIAN_POINT('',(-0.0903,0.0792,0.008));
#948=CARTESIAN_POINT('',(-0.0849,0.0792,0.008));
#949=CARTESIAN_POINT('',(-0.0849,0.0792,0.008));
#950=CARTESIAN_POINT('',(-0.0903,0.0792,0.008));
#951=CARTESIAN_POINT('',(-0.0849,0.0817,0.008));
#952=CARTESIAN_POINT('',(-0.0849,0.0817,0.008));
#953=CARTESIAN_POINT('',(-2.77555756156289E-17,-1.38777878078145E-17,0.008));
#954=CARTESIAN_POINT('',(-0.0957,0.0792,0.008));
#955=CARTESIAN_POINT('',(-0.0982,0.02157,0.008));
#956=CARTESIAN_POINT('',(-0.0957,0.02157,0.008));
#957=CARTESIAN_POINT('',(-0.0957,0.02157,0.008));
#958=CARTESIAN_POINT('',(-0.0982,0.02157,0.008));
#959=CARTESIAN_POINT('',(0.0982,0.02295,0.008));
#960=CARTESIAN_POINT('',(0.0957,0.02295,0.008));
#961=CARTESIAN_POINT('',(0.0957,0.02295,0.008));
#962=CARTESIAN_POINT('',(0.0982,0.02295,0.008));
#963=CARTESIAN_POINT('',(0.0957,-0.028125,0.008));
#964=CARTESIAN_POINT('',(0.0957,-0.0792,0.008));
#965=CARTESIAN_POINT('',(0.0957,-0.0792,0.008));
#966=CARTESIAN_POINT('',(0.0957,-0.028125,0.008));
#967=CARTESIAN_POINT('',(-2.77555756156289E-17,-0.0792,0.008));
#968=CARTESIAN_POINT('',(-0.0957,-0.0792,0.008));
#969=CARTESIAN_POINT('',(-0.0957,-0.0792,0.008));
#970=CARTESIAN_POINT('',(-2.77555756156289E-17,-0.0792,0.008));
#971=CARTESIAN_POINT('',(-0.0957,-0.028815,0.008));
#972=CARTESIAN_POINT('',(-0.0957,-0.028815,0.008));
#973=CARTESIAN_POINT('',(-2.77555756156289E-17,-1.38777878078145E-17,0.008));
#974=CARTESIAN_POINT('',(-0.0957,-0.0792,0.008));
#975=CARTESIAN_POINT('',(0.0957,-0.0792,0.008));
#976=CARTESIAN_POINT('',(-0.0957,-0.0792,0.002));
#977=CARTESIAN_POINT('',(-0.0957,0.0792,0.002));
#978=CARTESIAN_POINT('',(0.0957,0.0792,0.002));
#979=CARTESIAN_POINT('',(0.0957,-0.0792,0.002));
#980=MECHANICAL_DESIGN_GEOMETRIC_PRESENTATION_REPRESENTATION('',(#597),
#981);
#981=(
GEOMETRIC_REPRESENTATION_CONTEXT(3)
GLOBAL_UNCERTAINTY_ASSIGNED_CONTEXT((#982))
GLOBAL_UNIT_ASSIGNED_CONTEXT((#985,#984,#983))
REPRESENTATION_CONTEXT('Bottom','TOP_LEVEL_ASSEMBLY_PART')
);
#982=UNCERTAINTY_MEASURE_WITH_UNIT(LENGTH_MEASURE(1.E-8),#985,
'DISTANCE_ACCURACY_VALUE','Maximum Tolerance applied to model');
#983=(
NAMED_UNIT(*)
SI_UNIT($,.STERADIAN.)
SOLID_ANGLE_UNIT()
);
#984=(
NAMED_UNIT(*)
PLANE_ANGLE_UNIT()
SI_UNIT($,.RADIAN.)
);
#985=(
LENGTH_UNIT()
NAMED_UNIT(*)
SI_UNIT($,.METRE.)
);
#986=PRODUCT_DEFINITION_SHAPE('','',#987);
#987=PRODUCT_DEFINITION('','',#989,#988);
#988=PRODUCT_DEFINITION_CONTEXT('',#995,'design');
#989=PRODUCT_DEFINITION_FORMATION_WITH_SPECIFIED_SOURCE('','',#991,
 .NOT_KNOWN.);
#990=PRODUCT_RELATED_PRODUCT_CATEGORY('','',(#991));
#991=PRODUCT('Bottom','Bottom','Bottom',(#993));
#992=PRODUCT_CATEGORY('','');
#993=PRODUCT_CONTEXT('',#995,'mechanical');
#994=APPLICATION_PROTOCOL_DEFINITION('international standard',
'ap242_managed_model_based_3d_engineering',2020,#995);
#995=APPLICATION_CONTEXT('managed model based 3d engineering');
ENDSEC;
END-ISO-10303-21;
