M48
; DRILL file {KiCad 9.0.8} date 2026-07-14T22:28:18+0200
; FORMAT={-:-/ absolute / metric / decimal}
; #@! TF.CreationDate,2026-07-14T22:28:18+02:00
; #@! TF.GenerationSoftware,Kicad,Pcbnew,9.0.8
; #@! TF.FileFunction,NonPlated,1,4,NPTH
FMAT,2
METRIC
; #@! TA.AperFunction,NonPlated,NPTH,ComponentDrill
T1C0.650
; #@! TA.AperFunction,NonPlated,NPTH,ComponentDrill
T2C1.600
; #@! TA.AperFunction,NonPlated,NPTH,ComponentDrill
T3C1.700
; #@! TA.AperFunction,NonPlated,NPTH,ComponentDrill
T4C3.400
%
G90
G05
T1
X228.75Y-67.86
X228.75Y-73.64
T2
X56.9Y-22.613
X56.9Y-29.613
T3
X51.0Y-95.25
X51.0Y-117.5
X51.0Y-139.75
X51.0Y-162.0
X62.0Y-95.25
X62.0Y-117.5
X62.0Y-139.75
X62.0Y-162.0
X73.25Y-95.25
X73.25Y-117.5
X73.25Y-139.75
X73.25Y-162.0
X84.25Y-95.25
X84.25Y-117.5
X84.25Y-139.75
X84.25Y-162.0
X95.5Y-95.25
X95.5Y-117.5
X95.5Y-139.75
X95.5Y-162.0
X106.5Y-95.25
X106.5Y-117.5
X106.5Y-139.75
X106.5Y-162.0
X117.75Y-95.25
X117.75Y-117.5
X117.75Y-139.75
X117.75Y-162.0
X128.75Y-95.25
X128.75Y-117.5
X128.75Y-139.75
X128.75Y-162.0
X140.0Y-95.25
X140.0Y-117.5
X140.0Y-139.75
X140.0Y-162.0
X151.0Y-95.25
X151.0Y-117.5
X151.0Y-139.75
X151.0Y-162.0
X162.25Y-95.25
X162.25Y-117.5
X162.25Y-139.75
X162.25Y-162.0
X173.25Y-95.25
X173.25Y-117.5
X173.25Y-139.75
X173.25Y-162.0
X184.5Y-95.25
X184.5Y-117.5
X184.5Y-139.75
X184.5Y-162.0
X195.5Y-95.25
X195.5Y-117.5
X195.5Y-139.75
X195.5Y-162.0
X206.75Y-95.25
X206.75Y-117.5
X206.75Y-139.75
X206.75Y-162.0
X217.75Y-95.25
X217.75Y-117.5
X217.75Y-139.75
X217.75Y-162.0
T4
X56.5Y-95.25
X56.5Y-117.5
X56.5Y-139.75
X56.5Y-162.0
X78.75Y-95.25
X78.75Y-117.5
X78.75Y-139.75
X78.75Y-162.0
X101.0Y-95.25
X101.0Y-117.5
X101.0Y-139.75
X101.0Y-162.0
X123.25Y-95.25
X123.25Y-117.5
X123.25Y-139.75
X123.25Y-162.0
X145.5Y-95.25
X145.5Y-117.5
X145.5Y-139.75
X145.5Y-162.0
X167.75Y-95.25
X167.75Y-117.5
X167.75Y-139.75
X167.75Y-162.0
X190.0Y-95.25
X190.0Y-117.5
X190.0Y-139.75
X190.0Y-162.0
X212.25Y-95.25
X212.25Y-117.5
X212.25Y-139.75
X212.25Y-162.0
M30
