M48
; DRILL file {KiCad 9.0.8} date 2026-07-14T22:28:18+0200
; FORMAT={-:-/ absolute / metric / decimal}
; #@! TF.CreationDate,2026-07-14T22:28:18+02:00
; #@! TF.GenerationSoftware,Kicad,Pcbnew,9.0.8
; #@! TF.FileFunction,Plated,1,4,PTH
FMAT,2
METRIC
; #@! TA.AperFunction,Plated,PTH,ComponentDrill
T1C0.200
; #@! TA.AperFunction,Plated,PTH,ViaDrill
T2C0.300
; #@! TA.AperFunction,Plated,PTH,ComponentDrill
T3C0.600
; #@! TA.AperFunction,Plated,PTH,ComponentDrill
T4C0.750
; #@! TA.AperFunction,Plated,PTH,ComponentDrill
T5C0.762
; #@! TA.AperFunction,Plated,PTH,ComponentDrill
T6C0.800
; #@! TA.AperFunction,Plated,PTH,ComponentDrill
T7C0.870
; #@! TA.AperFunction,Plated,PTH,ComponentDrill
T8C1.000
; #@! TA.AperFunction,Plated,PTH,ComponentDrill
T9C1.041
; #@! TA.AperFunction,Plated,PTH,ComponentDrill
T10C1.100
; #@! TA.AperFunction,Plated,PTH,ComponentDrill
T11C1.200
%
G90
G05
T1
X199.95Y-50.77
X199.95Y-52.17
X200.65Y-50.07
X200.65Y-51.47
X200.65Y-52.87
X201.35Y-50.77
X201.35Y-52.17
X202.05Y-50.07
X202.05Y-51.47
X202.05Y-52.87
X202.75Y-50.77
X202.75Y-52.17
T2
X45.4Y-88.8
X46.45Y-95.0
X47.2Y-84.85
X47.65Y-88.2
X47.7Y-85.65
X48.25Y-84.8
X48.85Y-74.75
X49.0Y-75.6
X49.185Y-80.5
X49.2Y-33.8
X49.35Y-41.25
X49.7Y-88.8
X50.3Y-89.45
X50.95Y-77.6
X51.0Y-83.05
X51.25Y-85.3
X51.25Y-88.2
X52.1Y-80.85
X52.4Y-87.3
X52.5Y-83.45
X52.5Y-84.25
X52.9Y-74.15
X53.15Y-85.9
X53.2Y-86.7
X53.4Y-82.9
X53.45Y-45.35
X53.7Y-81.85
X54.45Y-80.25
X55.0Y-70.0
X55.0Y-75.0
X56.75Y-81.388
X56.75Y-83.15
X57.0Y-70.0
X57.0Y-75.0
X58.55Y-76.6
X58.7Y-83.35
X60.35Y-49.5
X60.5Y-22.4
X60.5Y-84.5
X60.6Y-44.05
X61.45Y-40.25
X62.35Y-50.5
X62.362Y-44.0
X62.5Y-84.5
X63.225Y-40.25
X64.05Y-43.2
X64.5Y-96.1
X64.8Y-43.6
X64.9Y-30.35
X65.6Y-45.0
X65.65Y-74.0
X66.0Y-45.75
X66.65Y-83.5
X67.0Y-41.4
X67.3Y-46.7
X67.65Y-83.6
X68.0Y-44.05
X68.4Y-40.8
X68.5Y-46.8
X68.75Y-23.75
X69.05Y-41.7
X69.65Y-41.1
X69.65Y-46.35
X69.85Y-89.5
X69.9Y-78.95
X70.35Y-74.75
X70.45Y-42.0
X70.65Y-42.95
X70.725Y-45.125
X70.95Y-92.0
X71.65Y-56.25
X71.862Y-80.1
X72.95Y-45.65
X73.638Y-41.75
X73.638Y-44.0
X73.65Y-27.35
X74.05Y-36.45
X75.1Y-41.0
X75.1Y-79.85
X75.35Y-44.0
X75.5Y-46.0
X75.75Y-36.4
X75.888Y-39.5
X76.75Y-79.1
X76.75Y-81.0
X76.9Y-71.2
X77.95Y-34.95
X79.025Y-79.1
X79.7Y-72.45
X80.5Y-40.0
X83.15Y-38.4
X83.438Y-80.5
X83.55Y-34.9
X83.638Y-78.5
X84.3Y-73.15
X84.875Y-37.125
X85.162Y-80.5
X85.35Y-78.5
X86.9Y-34.1
X86.95Y-36.6
X87.0Y-71.19
X87.0Y-73.73
X87.15Y-76.2
X88.05Y-76.0
X88.6Y-79.0
X88.75Y-82.25
X88.8Y-86.75
X89.2Y-54.35
X89.25Y-90.35
X89.3Y-89.45
X89.7Y-82.35
X90.35Y-33.85
X90.55Y-49.9
X90.638Y-73.1
X90.8Y-51.95
X91.7Y-77.9
X92.35Y-74.1
X92.4Y-91.45
X92.9Y-87.6
X93.5Y-72.15
X93.85Y-91.8
X94.7Y-34.9
X95.3Y-59.75
X98.35Y-94.0
X99.0Y-57.5
X100.15Y-91.8
X101.0Y-57.5
X101.0Y-61.5
X101.0Y-65.5
X137.95Y-91.6
X156.55Y-21.45
X157.45Y-35.55
X160.35Y-66.15
X160.4Y-63.15
X160.6Y-54.15
X162.8Y-55.0
X162.95Y-62.8
X163.8Y-51.15
X164.15Y-101.95
X164.15Y-103.8
X164.55Y-55.0
X164.55Y-57.3
X164.9Y-65.85
X166.3Y-65.55
X167.1Y-66.1
X167.8Y-34.45
X170.7Y-48.0
X170.8Y-57.9
X171.1Y-54.1
X171.95Y-47.75
X172.85Y-50.2
X173.4Y-49.6
X174.5Y-39.9
X175.45Y-56.4
X176.15Y-55.8
X176.2Y-57.9
X176.6Y-52.6
X176.95Y-41.55
X178.0Y-57.4
X178.05Y-54.15
X178.25Y-65.25
X179.05Y-46.8
X179.2Y-66.35
X180.4Y-59.45
X180.4Y-63.65
X180.45Y-51.9
X183.5Y-54.75
X185.55Y-66.65
X185.85Y-62.35
X186.3Y-48.35
X187.2Y-43.85
X187.65Y-68.7
X189.3Y-70.45
X189.45Y-47.2
X190.15Y-68.9
X190.45Y-56.3
X190.95Y-52.95
X190.95Y-55.55
X191.1Y-50.35
X191.1Y-58.25
X191.15Y-49.4
X191.6Y-68.3
X191.75Y-47.0
X191.8Y-62.1
X192.6Y-49.45
X193.2Y-72.35
X194.1Y-45.0
X194.1Y-46.29
X194.1Y-48.83
X194.1Y-50.1
X194.1Y-51.37
X194.1Y-52.64
X194.1Y-53.91
X194.1Y-55.18
X194.1Y-56.45
X194.1Y-57.72
X197.135Y-61.51
X198.25Y-77.0
X198.405Y-61.51
X198.45Y-64.65
X199.45Y-64.65
X199.5Y-66.45
X199.675Y-61.51
X200.25Y-72.25
X200.25Y-75.1
X200.3Y-68.05
X200.45Y-70.4
X200.945Y-61.51
X200.95Y-64.7
X201.15Y-74.4
X201.25Y-68.35
X202.0Y-68.05
X202.0Y-69.7
X202.215Y-61.51
X202.25Y-64.7
X202.8Y-69.45
X203.15Y-66.5
X203.485Y-61.51
X203.65Y-64.5
X204.35Y-65.15
X204.8Y-61.6
X205.0Y-46.0
X205.0Y-64.45
X205.1Y-66.7
X205.2Y-70.95
X205.25Y-72.25
X206.0Y-69.5
X207.295Y-61.51
X207.4Y-81.0
X208.45Y-84.65
X208.6Y-71.1
X208.75Y-80.75
X209.45Y-62.8
X209.455Y-75.705
X209.835Y-61.51
X210.362Y-82.5
X210.4Y-69.05
X210.6Y-70.35
X211.6Y-46.29
X211.6Y-47.56
X211.6Y-48.83
X211.6Y-50.1
X212.4Y-76.95
X212.55Y-74.45
X213.2Y-43.2
X214.0Y-64.5
X215.95Y-64.55
X216.4Y-54.3
X216.75Y-60.6
X218.4Y-54.65
X218.8Y-47.4
X219.0Y-43.95
X220.8Y-57.45
X221.65Y-58.85
X222.9Y-68.8
X224.25Y-60.7
X224.5Y-75.0
X225.85Y-67.55
X226.05Y-69.0
X227.305Y-73.2
X227.75Y-29.2
X227.9Y-65.35
X228.3Y-76.4
X230.75Y-32.75
X232.5Y-76.4
T4
X68.25Y-36.75
X70.0Y-73.25
X70.25Y-36.75
X72.0Y-73.25
T5
X78.399Y-57.0
T6
X45.25Y-93.824
X45.25Y-96.364
X45.25Y-116.15
X45.25Y-118.69
X45.25Y-137.434
X45.25Y-139.974
X45.25Y-160.574
X45.25Y-163.114
X67.75Y-93.824
X67.75Y-96.364
X67.75Y-116.25
X67.75Y-118.79
X67.75Y-137.434
X67.75Y-139.974
X67.75Y-159.75
X67.75Y-162.29
X68.46Y-58.9
X68.46Y-61.9
X71.0Y-58.9
X71.0Y-61.9
X84.46Y-55.4
X84.46Y-61.65
X84.574Y-58.4
X87.0Y-55.4
X87.0Y-61.65
X87.114Y-58.4
X90.0Y-93.824
X90.0Y-96.364
X90.0Y-116.15
X90.0Y-118.69
X90.0Y-137.434
X90.0Y-139.974
X90.0Y-159.724
X90.0Y-162.264
X112.25Y-93.824
X112.25Y-96.364
X112.25Y-116.15
X112.25Y-118.69
X112.25Y-137.434
X112.25Y-139.974
X112.25Y-160.474
X112.25Y-163.014
X134.5Y-93.824
X134.5Y-96.364
X134.5Y-116.15
X134.5Y-118.69
X134.5Y-137.434
X134.5Y-139.974
X134.5Y-160.724
X134.5Y-163.264
X156.75Y-93.824
X156.75Y-96.364
X156.75Y-137.434
X156.75Y-139.974
X156.75Y-160.15
X156.75Y-162.69
X156.773Y-116.15
X156.773Y-118.69
X179.0Y-93.824
X179.0Y-96.364
X179.0Y-116.15
X179.0Y-118.69
X179.0Y-137.434
X179.0Y-139.974
X179.0Y-159.974
X179.0Y-162.514
X181.945Y-73.62
X189.565Y-73.62
X201.0Y-137.434
X201.0Y-139.974
X201.25Y-93.824
X201.25Y-96.364
X201.25Y-116.15
X201.25Y-118.69
X201.25Y-159.974
X201.25Y-162.514
T7
X83.5Y-27.21
X83.5Y-29.75
T8
X46.5Y-32.09
X46.5Y-34.63
X46.5Y-37.17
X46.5Y-39.71
X46.5Y-42.25
X46.5Y-46.021
X46.5Y-48.561
X46.5Y-51.101
X46.5Y-55.009
X46.5Y-57.549
X46.5Y-60.089
X46.5Y-62.629
X46.5Y-67.88
X46.5Y-70.42
X46.5Y-72.96
X46.5Y-75.5
X93.892Y-28.495
X93.892Y-31.035
X93.892Y-33.575
X93.892Y-36.115
X93.892Y-38.655
X93.892Y-41.195
X93.892Y-43.735
X93.892Y-46.275
X93.892Y-48.815
X93.892Y-51.355
X93.892Y-53.895
X93.892Y-56.435
X93.892Y-58.975
X93.892Y-61.515
X175.108Y-41.534
X175.108Y-44.074
X175.108Y-46.614
X175.108Y-49.154
T9
X78.399Y-60.8
T10
X182.5Y-44.5
X182.5Y-49.0
X182.5Y-53.75
X182.5Y-58.25
X182.5Y-63.0
X182.5Y-67.5
X189.0Y-44.5
X189.0Y-49.0
X189.0Y-53.75
X189.0Y-58.25
X189.0Y-63.0
X189.0Y-67.5
T11
X51.5Y-99.05
X51.5Y-121.3
X51.5Y-143.55
X51.5Y-165.8
X56.5Y-101.15
X56.5Y-123.4
X56.5Y-145.65
X56.5Y-167.9
X73.75Y-99.05
X73.75Y-121.3
X73.75Y-143.55
X73.75Y-165.8
X78.75Y-101.15
X78.75Y-123.4
X78.75Y-145.65
X78.75Y-167.9
X96.0Y-99.05
X96.0Y-121.3
X96.0Y-143.55
X96.0Y-165.8
X101.0Y-101.15
X101.0Y-123.4
X101.0Y-145.65
X101.0Y-167.9
X118.25Y-99.05
X118.25Y-121.3
X118.25Y-143.55
X118.25Y-165.8
X123.25Y-101.15
X123.25Y-123.4
X123.25Y-145.65
X123.25Y-167.9
X140.5Y-99.05
X140.5Y-121.3
X140.5Y-143.55
X140.5Y-165.8
X145.5Y-101.15
X145.5Y-123.4
X145.5Y-145.65
X145.5Y-167.9
X162.75Y-99.05
X162.75Y-121.3
X162.75Y-143.55
X162.75Y-165.8
X167.75Y-101.15
X167.75Y-123.4
X167.75Y-145.65
X167.75Y-167.9
X185.0Y-99.05
X185.0Y-121.3
X185.0Y-143.55
X185.0Y-165.8
X190.0Y-101.15
X190.0Y-123.4
X190.0Y-145.65
X190.0Y-167.9
X207.25Y-99.05
X207.25Y-121.3
X207.25Y-143.55
X207.25Y-165.8
X212.25Y-101.15
X212.25Y-123.4
X212.25Y-145.65
X212.25Y-167.9
T3
G00X227.67Y-66.43
M15
G01X228.77Y-66.43
M16
G05
G00X227.67Y-75.07
M15
G01X228.77Y-75.07
M16
G05
G00X232.1Y-66.43
M15
G01X232.7Y-66.43
M16
G05
G00X232.1Y-75.07
M15
G01X232.7Y-75.07
M16
G05
M30
